<svg width="100" height="100" viewBox="0 0 100 100" fill="none" xmlns="http://www.w3.org/2000/svg">
<g clip-path="url(#clip0_1042_29)">
<rect width="100" height="100" fill="white"/>
<path d="M0 50V100H50H100V50V-7.62939e-06H50H0V50ZM46.9333 38.4L46.8333 41.1L35.8667 45.3333C29.8333 47.6667 24.6667 49.7 24.4333 49.8667C24.1 50.0667 27.5 51.5333 35.4 54.5667L46.8333 58.9667L46.9333 61.6333C47 63.6 46.9 64.3333 46.6333 64.3333C46.4 64.3333 39.9 61.8333 32.2 58.8C24.4667 55.7333 17.9667 53.1667 17.7667 53.1C17.4667 52.9667 17.3333 52.0333 17.3333 50.0333V47.1333L23.4333 44.7667C26.7667 43.4333 33.2667 40.8667 37.8333 39.0333C42.4333 37.2 46.3667 35.7 46.6 35.7C46.9333 35.6667 47 36.3333 46.9333 38.4ZM66.2 40.6667C73.1333 43.4333 79.6667 46.0333 80.6667 46.4333L82.5 47.2L82.6 49.8667C82.6667 51.7667 82.5667 52.6667 82.2667 52.9C81.7667 53.3 53.8333 64.3333 53.3333 64.3333C53.1 64.3333 53 63.3667 53.0667 61.6333L53.1667 58.9333L64.5667 54.5667C70.8333 52.1333 75.8667 50.1 75.8 50C75.7 49.9 70.5667 47.8667 64.4 45.5L53.1667 41.1333L53.0667 38.4C53 36.9 53.1 35.6667 53.2667 35.6667C53.4333 35.6667 59.2333 37.9333 66.2 40.6667Z" fill="#3B065E"/>
</g>
<defs>
<clipPath id="clip0_1042_29">
<rect width="100" height="100" fill="white"/>
</clipPath>
</defs>
</svg>
